<svg width="459" height="428" viewBox="0 0 459 428" fill="none" xmlns="http://www.w3.org/2000/svg">
<path d="M386.249 377.084C359.227 347.359 331.904 317.935 304.282 288.811C300.979 285.508 292.572 283.707 288.669 285.508C280.262 289.411 273.056 296.317 264.949 302.622C293.773 348.26 328.902 388.493 376.341 415.816C378.142 414.314 380.244 412.813 382.046 411.312C380.544 404.706 379.343 398.101 377.842 391.495C382.046 392.396 386.549 393.597 395.257 395.699C391.053 386.691 389.852 380.686 386.249 377.084Z" fill="#FDC114"/>
<path d="M94.1078 45.3101C78.1946 25.7941 77.5942 26.3946 59.5793 46.2108C57.1772 48.913 53.2743 50.114 46.0684 54.3175C73.9913 89.4465 100.413 122.173 126.535 154.9C139.145 170.513 149.354 156.702 158.661 151.297C169.77 144.992 164.366 135.684 158.361 127.878C137.043 100.255 116.026 72.3324 94.1078 45.3101Z" fill="#FDC114"/>
<path d="M103.416 221.856C106.418 203.24 108.219 199.337 88.4031 198.136C73.3908 197.235 58.0783 197.836 43.066 197.836C43.066 197.235 43.066 196.335 43.066 195.734C29.855 195.734 16.6441 195.734 3.43354 195.734C-17.2837 196.034 -20.2862 200.838 -11.879 218.853C-10.3778 221.856 -9.17681 226.059 -10.0777 229.362C-14.5815 244.975 -6.17461 247.977 6.73615 247.677C25.9521 247.377 44.8673 247.677 64.0833 247.377C82.0981 246.476 99.2123 248.578 103.416 221.856Z" fill="#FDC114"/>
<path d="M337.609 136.285C358.026 115.868 377.241 94.2506 396.157 72.3326C407.867 58.8214 397.358 50.4145 388.351 41.1069C378.442 30.5982 370.636 35.4021 363.73 43.5088C338.81 72.3326 314.19 101.156 288.969 130.881C312.088 156.402 316.591 157.303 337.609 136.285Z" fill="#FDC114"/>
<path d="M97.7114 293.915C71.2894 324.54 46.0688 356.366 19.9473 388.493C49.071 410.711 49.071 410.711 66.7856 389.093C86.0017 365.674 105.518 342.555 123.532 318.235C128.036 312.23 131.639 298.118 128.637 295.416C120.23 287.309 107.019 282.806 97.7114 293.915Z" fill="#FDC114"/>
<path d="M442.995 199.337C430.385 199.037 417.775 199.337 405.464 199.337C405.464 199.337 405.464 199.337 405.464 199.037C393.455 199.037 381.745 199.938 369.735 198.737C353.521 197.536 348.418 207.143 349.318 220.054C350.519 235.667 360.427 244.674 376.04 246.476C392.554 248.277 409.067 247.677 425.28 250.679C440.293 253.382 446.898 243.774 453.504 234.766C456.506 230.563 453.204 221.856 455.906 216.751C463.412 201.739 455.005 199.637 442.995 199.337Z" fill="#FDC114"/>
<path d="M190.186 317.935C173.373 316.133 179.378 330.845 177.276 338.952C174.874 347.659 173.373 356.967 173.373 366.275C173.373 380.987 173.072 396.599 176.975 410.411C179.077 417.917 190.186 426.624 197.692 427.225C208.501 428.426 217.509 420.619 217.809 406.808C218.109 395.098 219.61 383.389 220.511 372.88C220.511 361.471 220.811 351.863 220.511 341.955C219.611 322.138 204.599 319.436 190.186 317.935Z" fill="#FDC114"/>
<path d="M217.81 3.87606C210.604 6.27798 202.798 15.8859 200.996 23.3921C197.994 35.1018 200.095 48.0125 199.795 60.6228C199.495 100.256 196.492 97.8534 239.127 102.958C240.328 102.958 241.53 102.357 248.135 100.556C248.135 77.4367 247.535 52.8164 248.435 28.1961C249.336 1.47405 243.631 -4.53095 217.81 3.87606Z" fill="#FDC114"/>
</svg>
