<svg width="53" height="45" viewBox="0 0 53 45" fill="none" xmlns="http://www.w3.org/2000/svg">
<path fill-rule="evenodd" clip-rule="evenodd" d="M19.594 0.132874C11.0536 1.08835 3.81434 6.89394 1.08331 14.9775C0.357472 17.1262 0.101437 18.6203 0.0194066 21.1856C-0.0602759 23.6771 0.0948082 25.1274 0.682829 27.3891C2.63926 34.9146 8.64114 40.9089 16.2735 42.9601C17.5837 43.3121 18.5125 43.4763 20.1145 43.6387C21.9463 43.8243 22.494 43.5807 22.494 42.5805C22.494 41.7909 22.1478 41.5817 20.622 41.4487C15.8806 41.0355 11.7617 39.2246 8.45236 36.0983C4.66323 32.5189 2.49385 27.868 2.23533 22.77C1.89353 16.032 5.15927 9.51666 10.7931 5.69653C14.1347 3.43065 17.9199 2.27512 22.0107 2.27239C27.4298 2.26871 32.1872 4.19276 36.0566 7.95299C36.9781 8.84869 37.1869 8.98774 37.6102 8.98774C38.5487 8.98774 39.0263 8.10213 38.5222 7.29622C37.8798 6.2691 34.9817 3.95778 32.8929 2.80676C28.8471 0.577453 24.1183 -0.373384 19.594 0.132874ZM21.314 4.41027C21.0226 4.69806 20.9749 4.87164 20.9749 5.64453C20.9749 6.41743 21.0226 6.591 21.314 6.87879C21.7687 7.32829 22.3969 7.32214 22.8607 6.86392C23.1871 6.54133 23.2103 6.43926 23.1597 5.5512C23.1135 4.74596 23.0521 4.54619 22.784 4.33181C22.3352 3.97266 21.7237 4.00527 21.314 4.41027ZM13.3431 6.42916C13.2181 6.52305 13.0498 6.77522 12.9693 6.98973C12.8484 7.31123 12.877 7.48726 13.1324 7.99242C13.5845 8.88704 13.9826 9.26066 14.4841 9.26066C15.0211 9.26066 15.5891 8.72861 15.5891 8.22536C15.5891 7.84559 15.1936 7.09535 14.7141 6.56562C14.4027 6.22161 13.7114 6.15284 13.3431 6.42916ZM29.3741 6.49739C28.5071 7.50349 28.3291 8.50755 28.9342 8.97778C29.6261 9.5157 30.1768 9.30323 30.7785 8.26657C31.2755 7.41029 31.3014 6.95139 30.8746 6.55525C30.4773 6.18654 29.6688 6.15543 29.3741 6.49739ZM21.2612 9.89314C20.9872 10.2373 20.9749 10.415 20.9749 14.0524V17.8519L20.4399 18.1217C19.8198 18.4343 19.2553 19.0519 18.9674 19.7328C18.7273 20.3006 18.703 21.597 18.9207 22.2143L19.0761 22.6547L15.9516 25.7608C13.0195 28.6757 12.8272 28.8977 12.8272 29.3663C12.8272 30.0309 13.2167 30.4116 13.8967 30.4116C14.3884 30.4116 14.569 30.2566 17.533 27.292L20.6519 24.1726L21.7081 24.2395C22.4001 24.2834 22.9202 24.2455 23.2161 24.1295C25.7944 23.1193 26.1926 19.757 23.9095 18.2733L23.1845 17.8022V14.0274C23.1845 10.4152 23.1722 10.2372 22.8982 9.89314C22.6775 9.61572 22.4903 9.53358 22.0797 9.53358C21.6692 9.53358 21.4819 9.61572 21.2612 9.89314ZM39.6796 10.348C39.2642 10.5124 38.5473 11.3696 38.1413 12.1874C37.8182 12.8386 37.8038 12.9367 37.9788 13.2973C38.4257 14.219 39.4643 14.1877 40.0052 13.2365C40.1653 12.9552 40.4854 12.4899 40.7167 12.2023C41.2172 11.5799 41.2474 11.1696 40.8265 10.7122C40.4611 10.3149 40.0739 10.192 39.6796 10.348ZM7.48595 12.2968C6.84421 13.0014 6.98493 13.5641 7.95465 14.1711C8.80699 14.7045 9.55631 14.6951 9.96978 14.1457C10.4127 13.5572 10.1711 12.9978 9.2333 12.4404C8.34561 11.9127 7.87138 11.8738 7.48595 12.2968ZM32.7856 14.635C32.6044 14.8141 32.3827 15.2285 32.2925 15.5561C31.9512 16.7979 32.4455 19.2071 33.1817 19.8906C33.5555 20.2374 34.2518 20.308 34.5873 20.0329C35.0787 19.6298 35.0932 19.2352 34.6506 18.3006C34.226 17.4042 34.1237 16.4779 34.3604 15.6742C34.6696 14.624 33.5467 13.883 32.7856 14.635ZM37.2165 15.3377C36.7381 15.8104 36.6072 16.9565 36.9054 18.0622C37.1571 18.9955 37.4453 19.5096 38.1681 20.3137C38.5069 20.6906 38.8785 21.1794 38.994 21.4001C39.4215 22.2172 39.1978 23.1758 38.3119 24.3226C37.7603 25.0367 37.6873 25.5762 38.0775 26.0526C38.386 26.4291 39.0268 26.4639 39.5394 26.132C40.477 25.5249 41.5031 23.2196 41.3629 22.0351C41.2531 21.1076 40.6122 19.8432 39.781 18.9141C39.0203 18.0638 38.7915 17.4881 38.7904 16.421C38.7893 15.528 38.5121 15.1283 37.894 15.1283C37.6378 15.1283 37.3331 15.2225 37.2165 15.3377ZM21.447 19.4838C20.5691 19.856 20.172 21.0124 20.6485 21.8093C21.5678 23.3472 23.9759 22.5046 23.6872 20.746C23.5298 19.788 22.3275 19.1104 21.447 19.4838ZM5.55147 20.0345C4.89592 20.3113 4.75948 21.224 5.29461 21.7527C5.58586 22.0406 5.76152 22.0877 6.54371 22.0877C7.32589 22.0877 7.50155 22.0406 7.7928 21.7527C8.20199 21.3485 8.23582 20.7438 7.87414 20.3024C7.66202 20.0437 7.45985 19.9806 6.73483 19.9475C6.24997 19.9252 5.71747 19.9644 5.55147 20.0345ZM34.2323 21.1325C34.0804 21.2826 33.9561 21.5582 33.9561 21.745C33.9561 22.3276 33.4485 23.4385 32.9164 24.0205C32.4706 24.508 32.4166 24.6398 32.4872 25.0694C32.572 25.5855 33.0164 26.0366 33.4452 26.0419C34.5096 26.0549 36.0168 23.7642 36.0243 22.1218C36.0283 21.2419 35.7155 20.8596 34.9919 20.8596C34.6926 20.8596 34.4033 20.9635 34.2323 21.1325ZM8.23913 27.7305C7.41621 28.2304 7.16515 28.5135 7.16515 28.9407C7.16515 29.5065 7.37174 29.815 7.86378 29.9846C8.22822 30.1102 8.39284 30.0818 8.96539 29.7951C10.2219 29.1659 10.5485 28.4205 9.86427 27.7445C9.43948 27.3246 8.91443 27.3201 8.23913 27.7305ZM27.083 28.9857C26.4939 29.3936 26.4798 29.5741 26.8438 32.0473C27.3012 35.1544 27.9225 36.9076 29.3467 39.1108L29.8098 39.8272L27.9127 39.8291C25.6719 39.8312 25.4465 39.877 25.1814 40.3835C24.8915 40.9374 24.9285 41.162 25.3834 41.6116C25.7744 41.9979 25.8295 42.0105 27.134 42.0105H28.481L29.3379 42.8699C30.3424 43.8772 31.4702 44.512 32.7965 44.8165C33.574 44.9949 34.3833 45.0255 37.2014 44.9829C40.4248 44.9341 40.7089 44.9095 41.4825 44.6111C42.6156 44.174 43.6672 43.4653 44.3571 42.6735L44.9349 42.0106L46.3611 42.0105C47.7531 42.0105 47.7969 42.0009 48.1909 41.6116C48.4129 41.3922 48.5945 41.1187 48.5945 41.004C48.5945 40.6166 48.29 40.1312 47.9514 39.9786C47.7179 39.8736 45.299 39.8272 40.046 39.8272H32.4771L31.9258 39.0425C30.3715 36.8304 29.4692 34.8286 29.1773 32.9445C29.0718 32.2644 28.9558 31.539 28.9194 31.3327L28.8534 30.9574H36.7181H44.5828L44.5194 31.3327C44.4846 31.539 44.3865 32.1978 44.3015 32.7966C44.0704 34.4238 43.6922 35.4718 42.9288 36.5997C42.5511 37.1578 42.242 37.7608 42.242 37.9398C42.242 38.7231 43.1729 39.2418 43.8231 38.8208C44.003 38.7044 44.3267 38.3626 44.5426 38.0611C44.9247 37.5274 44.9566 37.513 45.7635 37.506C46.9096 37.4962 48.5298 37.2775 49.3541 37.0212C50.8238 36.5642 51.8188 35.4903 52.5974 33.5204C53.1194 32.1996 53.1305 31.7502 52.6498 31.3768C52.3092 31.112 52.1091 31.0939 49.5234 31.0939H46.7607L46.8433 30.4054C46.9396 29.602 46.7678 29.1388 46.2942 28.9256C46.0582 28.8194 43.1834 28.7741 36.6732 28.7741C28.5076 28.7741 27.352 28.7996 27.083 28.9857ZM31.1189 32.5205C30.9325 32.7048 30.7799 32.9481 30.7799 33.0612C30.7799 33.8859 32.3037 36.5722 32.932 36.8551C33.3912 37.0618 33.9626 36.7776 34.1507 36.2488C34.2615 35.9378 34.197 35.7636 33.7029 35.0363C33.3854 34.569 32.9922 33.8256 32.8294 33.384C32.3876 32.187 31.7712 31.8759 31.1189 32.5205ZM14.1113 32.8667C13.7506 33.0137 12.9684 34.3027 12.9665 34.7531C12.9635 35.4922 13.6964 36.0035 14.3868 35.7441C14.855 35.5682 15.583 34.4323 15.5865 33.8723C15.5912 33.099 14.8242 32.5761 14.1113 32.8667ZM46.2249 34.3347C46.1035 34.9163 46.0365 35.4466 46.0762 35.5131C46.1813 35.6894 48.0952 35.4993 48.6909 35.2534C49.3945 34.9629 50.0867 34.4189 50.401 33.9095C50.5463 33.6743 50.6652 33.4359 50.6654 33.3795C50.6657 33.3232 49.7164 33.2772 48.5559 33.2772H46.4456L46.2249 34.3347ZM21.314 35.1132C21.0226 35.401 20.9749 35.5746 20.9749 36.3475C20.9749 37.1204 21.0226 37.294 21.314 37.5818C21.7687 38.0312 22.3969 38.0251 22.8607 37.5669C23.1871 37.2443 23.2103 37.1422 23.1597 36.2542C23.1135 35.4489 23.0521 35.2491 22.784 35.0348C22.3352 34.6756 21.7237 34.7082 21.314 35.1132ZM32.2299 42.3922L32.9204 42.761L36.4291 42.8038C39.3994 42.84 40.0449 42.812 40.6351 42.6213C41.0186 42.4974 41.4576 42.3092 41.6108 42.2032C41.8526 42.0359 41.2093 42.0113 36.7144 42.0169L31.5394 42.0232L32.2299 42.3922Z" fill="white"/>
</svg>
