<svg width="49" height="49" viewBox="0 0 49 49" fill="none" xmlns="http://www.w3.org/2000/svg">
<path d="M17.0324 0H5.90518C3.43781 0.00146484 1.23184 1.5379 0.375 3.85172L15.9521 23.0833L17.0324 0Z" fill="#FDC114"/>
<path d="M37.519 0H17.8516L18.9286 23.0848L37.519 0Z" fill="#FDC114"/>
<path d="M0.222717 4.31628C0.0761108 4.83392 0.00115967 5.36923 0 5.90726V21.2075L13.5438 24.8333L0.222717 4.31628Z" fill="#FDC114"/>
<path d="M49.0012 17.8204V5.90405C49.0012 2.6427 46.3568 -0.000884788 43.0955 2.22145e-07H38.2001L21.3359 24.8301L49.0012 17.8204Z" fill="#FDC114"/>
<path d="M48.9979 38.5506V18.1942L22.2539 27.662L48.9979 38.5506Z" fill="#FDC114"/>
<path d="M3 48.2315C3.88504 48.736 4.88635 49.0009 5.90509 49H16.835L15.952 32.2408L3 48.2315Z" fill="#FDC114"/>
<path d="M0 22.8128V32.5113L12.6259 27.662L0 22.8128Z" fill="#FDC114"/>
<path d="M21.3359 30.4923L33.3509 49H43.0939C46.3549 49 48.9987 46.3569 48.9996 43.0959V38.9801L21.3359 30.4923Z" fill="#FDC114"/>
<path d="M18.0508 49H32.5031L18.929 32.2424L18.0508 49Z" fill="#FDC114"/>
<path d="M0.0078125 34.1165V43.0927C0.0078125 44.9315 0.866089 46.6638 2.32825 47.7771L13.5516 30.4892L0.0078125 34.1165Z" fill="#FDC114"/>
</svg>
