<svg width="168" height="193" viewBox="0 0 168 193" fill="none" xmlns="http://www.w3.org/2000/svg">
<path fill-rule="evenodd" clip-rule="evenodd" d="M14.0316 0.188039C13.9695 0.288804 13.4432 0.502582 12.8619 0.663472C12.2809 0.824176 11.6385 1.0283 11.4346 1.11719C11.2307 1.20608 10.7301 1.4245 10.3222 1.60265C9.24232 2.07418 7.34092 3.32771 6.01276 4.44411C3.7923 6.31002 1.31118 10.2007 0.765192 12.6723C0.635417 13.2604 0.417394 13.8342 0.280944 13.9476C-0.106529 14.2695 -0.086877 169.446 0.300781 170.041C0.447984 170.267 0.659703 170.861 0.77094 171.36C1.58871 175.029 5.08839 179.464 8.83909 181.586C9.7883 182.122 10.9711 183.12 10.9711 183.383C10.9711 183.834 12.8983 186.432 14.1951 187.73C16.6206 190.158 19.3027 191.688 22.5918 192.521L24.4793 192.999H88.256C158.082 192.999 152.619 193.083 155.908 191.952C160.774 190.278 165.22 185.705 166.709 180.844C166.928 180.129 167.245 179.294 167.414 178.988C167.699 178.472 167.722 172.42 167.731 96.1306C167.736 50.8652 167.694 15.9593 167.638 18.562C167.533 23.4568 167.44 23.8411 166.9 21.6239C166.567 20.2568 165.31 17.7152 164.27 16.3084C163.092 14.7147 161.077 12.8189 159.455 11.7779C158.748 11.3245 158.104 10.9536 158.023 10.9536C157.836 10.9536 156.691 9.77778 156.691 9.58535C156.691 9.22423 154.87 6.68042 153.843 5.60578C151.633 3.29468 149.423 1.86207 146.617 0.922714C145.682 0.609842 144.839 0.275443 144.742 0.179503C144.495 -0.0654508 14.1829 -0.0569145 14.0316 0.188039ZM16.0694 3.10206C13.7296 3.41493 10.9529 4.51277 9.13368 5.84442C8.72118 6.14653 6.47513 8.39101 5.98087 8.99542C5.16662 9.99082 3.95563 12.5073 3.52051 14.1083L3.09188 15.6856V92.048V168.41L3.52051 169.893C3.75615 170.708 4.19924 171.899 4.50477 172.54C5.436 174.493 8.21839 177.927 8.731 177.756C8.87635 177.708 8.94773 156.088 8.98518 100.77C9.03245 31.0182 9.0649 23.7535 9.33298 22.8078C10.5497 18.5169 12.7509 15.0962 15.7676 12.8093C16.1041 12.5541 16.4766 12.2617 16.5952 12.1594C17.6965 11.2106 20.131 10.071 22.4655 9.41165L23.856 9.01899L88.0947 8.96647C134.285 8.92861 152.352 8.85698 152.401 8.71149C152.487 8.45337 151.533 7.45852 150.109 6.32097C148.623 5.13387 146.475 4.01191 144.701 3.4964L143.249 3.07459L79.9376 3.05121C45.116 3.03822 16.3753 3.06123 16.0694 3.10206ZM23.1144 12.5205C20.1703 13.2884 18.0398 14.5939 15.8531 16.9692C14.3286 18.6252 13.0394 21.0247 12.4609 23.2825C12.0842 24.7528 12.0835 24.9109 12.0866 101.037C12.0898 174.904 12.1007 177.36 12.4359 178.652C13.2411 181.754 15.166 184.737 17.6453 186.724C19.9097 188.539 22.4529 189.538 25.5924 189.845C26.93 189.976 47.5636 190.015 89.7634 189.967L151.963 189.896L153.391 189.509C158.733 188.06 162.893 183.842 164.222 178.524C164.559 177.174 164.57 174.843 164.57 100.863V24.593L164.141 23.1109C162.797 18.4638 159.682 14.9051 155.393 13.1182C152.71 12.0006 157.39 12.0729 88.1876 12.0794L24.7829 12.0852L23.1144 12.5205ZM0.124657 91.9552C0.124657 134.822 0.145977 152.386 0.171933 130.987C0.197888 109.587 0.197888 74.5142 0.171933 53.047C0.145977 31.5796 0.124657 49.0884 0.124657 91.9552ZM30.6332 23.5891C30.1801 23.6782 29.4512 23.9194 29.0131 24.1256C28.5752 24.3316 28.164 24.5002 28.0993 24.5002C27.8321 24.5002 25.64 26.1923 24.8406 27.0155C22.5313 29.3934 21.2816 33.2015 21.7364 36.474C22.3758 41.0769 25.4116 44.6694 29.974 46.2228C31.0372 46.5848 31.6401 46.6637 33.3111 46.6593C35.5999 46.6531 36.437 46.4653 38.3337 45.5323C41.8017 43.8265 44.1204 40.8607 44.8032 37.2579C45.1579 35.3869 45.1559 34.4904 44.793 32.704C43.9098 28.3547 40.5373 24.7942 36.2475 23.6815C35.0163 23.3621 32.0393 23.3131 30.6332 23.5891ZM31.3223 26.6445C29.0296 27.2008 27.2008 28.559 25.9837 30.6096C23.1094 35.4524 25.4055 41.4056 30.8564 43.2429C33.1077 44.0017 36.0643 43.553 38.1142 42.1412C41.2135 40.0069 42.5579 36.5074 41.651 32.9363C41.2335 31.2929 40.6673 30.2977 39.429 29.0306C37.2338 26.7844 34.302 25.9215 31.3223 26.6445ZM54.4428 28.6821C53.3137 29.2399 53.1578 30.4253 54.1144 31.1786C54.5861 31.5499 54.7915 31.5519 93.1932 31.5519C131.415 31.5519 131.802 31.5482 132.265 31.1838C132.523 30.9813 132.787 30.6016 132.852 30.3403C132.999 29.7556 132.522 28.8816 131.901 28.5986C131.588 28.4559 120.331 28.3985 93.2308 28.4015C59.7519 28.4052 54.9326 28.4401 54.4428 28.6821ZM53.9682 41.0018C53.2922 41.6785 53.2841 42.1516 53.9361 42.8742L54.4459 43.4392L79.1476 43.4366C98.1616 43.4346 103.932 43.3823 104.209 43.2093C104.585 42.9744 104.966 42.2935 104.966 41.8567C104.966 41.7162 104.75 41.3443 104.486 41.0303L104.006 40.4593H79.2579H54.5101L53.9682 41.0018ZM30.3448 58.4794C28.2059 58.9682 25.8128 60.879 24.7766 62.9258C23.7123 65.0284 23.769 62.4736 23.7661 108.444C23.7631 154.741 23.6923 151.689 24.8206 153.917C25.4463 155.153 27.3317 157.019 28.4908 157.549C30.638 158.53 27.1202 158.476 89.2284 158.479C126.924 158.481 147.347 158.418 147.998 158.297C150.652 157.804 153.223 155.618 154.327 152.915L154.744 151.895L154.793 108.935C154.827 79.542 154.781 65.6784 154.648 65.0354C154.125 62.5018 152.352 60.2926 149.85 59.0548L148.46 58.3669L89.7731 58.3385C54.9276 58.3215 30.7851 58.3788 30.3448 58.4794ZM29.9456 61.9826C28.8369 62.5371 28.0338 63.3452 27.3607 64.5835C27.0164 65.2169 27.0077 66.3042 27.0077 108.285V151.338L27.427 152.181C27.9491 153.23 28.9751 154.302 29.9623 154.831L30.7155 155.235H89.2999C145.51 155.235 147.912 155.221 148.56 154.898C149.637 154.362 150.632 153.406 151.13 152.429L151.592 151.523L151.64 108.662C151.693 60.7882 151.808 64.8511 150.355 63.1988C149.94 62.7271 149.256 62.1568 148.835 61.9314L148.07 61.5216L89.5636 61.4741L31.0574 61.4266L29.9456 61.9826ZM96.5279 70.1134C94.2614 70.8978 93.8777 71.2541 88.9292 77.1677C88.6233 77.533 88.0393 78.2213 87.6314 78.6968C87.2235 79.1722 86.5144 80.0076 86.0556 80.553C85.5967 81.0984 84.8876 81.9339 84.4797 82.4093C84.0718 82.8847 83.1959 83.9241 82.5331 84.7189C81.8703 85.5135 81.2437 86.256 81.1404 86.3688C81.0373 86.4815 80.3269 87.3253 79.5618 88.2438C78.214 89.8618 77.7955 90.353 76.4088 91.9452C76.0484 92.3591 75.1349 93.4491 74.3789 94.3677C72.3792 96.7972 71.6234 97.4454 70.075 98.0579C68.7689 98.5746 67.9472 98.9249 66.2577 99.6854C65.8204 99.8823 64.9027 100.271 64.2184 100.55C60.2013 102.185 57.5116 104.662 55.8117 108.293C54.8466 110.355 54.4754 112.084 54.4793 114.502C54.4849 118.147 55.6721 121.294 58.1403 124.208C59.741 126.098 62.7922 127.97 65.3384 128.625C66.1793 128.842 66.9758 129.107 67.1083 129.214C67.3586 129.416 67.6853 130.085 68.5344 132.131C69.036 133.341 69.121 133.537 70.0051 135.524C70.2676 136.113 70.4825 136.643 70.4825 136.702C70.4825 136.76 70.6004 137.07 70.7444 137.392C70.983 137.925 71.2242 138.495 72.4061 141.317C73.3198 143.499 73.9493 144.475 74.9853 145.316C78.5957 148.246 83.7574 147.137 85.7665 143C86.39 141.716 86.6028 139.709 86.2599 138.346C86.0854 137.652 84.351 133.351 83.6419 131.853C82.7654 130.002 81.0946 125.736 81.1695 125.54C81.3039 125.19 83.5768 124.315 84.0692 124.425C84.2951 124.475 86.6071 124.644 89.2072 124.799C91.8074 124.955 94.1851 125.121 94.491 125.169C94.7969 125.216 96.674 125.342 98.6623 125.45C100.651 125.558 103.863 125.765 105.8 125.911C112.655 126.427 116.276 126.616 117.3 126.51C119.557 126.277 122.163 124.457 123.274 122.337C124.66 119.695 124.57 117.414 122.939 113.831C122.741 113.395 122.578 112.994 122.578 112.94C122.578 112.887 122.363 112.36 122.101 111.771C121.296 109.962 121.152 109.631 120.557 108.22C120.241 107.469 119.983 106.77 119.983 106.667C119.983 106.564 120.443 105.982 121.006 105.373C122.851 103.379 123.506 101.632 123.638 98.3574C123.716 96.411 123.668 95.7726 123.338 94.389C122.173 89.5133 118.575 85.224 114.526 83.887C114.125 83.7547 112.968 83.5951 111.955 83.5326L110.112 83.419L109.555 82.12C109.248 81.4055 108.836 80.4556 108.638 80.0091C108.441 79.5626 108.115 78.7693 107.915 78.2462C107.499 77.158 107.475 77.1042 106.47 74.9647C105.29 72.4529 103.814 71.0095 101.575 70.1779C100.214 69.6725 97.8877 69.6426 96.5279 70.1134ZM97.61 73.0055C96.7016 73.3018 95.7173 73.8873 95.3252 74.3644C95.1723 74.5506 94.6721 75.1609 94.2136 75.7206C93.7553 76.2804 93.2965 76.831 93.194 76.9444C92.5282 77.6806 91.7199 78.6244 90.5076 80.0811C89.7443 80.9984 88.5346 82.4251 87.8194 83.2518C87.1041 84.0783 85.9768 85.4057 85.314 86.2014C84.6512 86.9973 84.0255 87.7406 83.9235 87.8534C83.8216 87.966 83.1171 88.8098 82.3582 89.7284C81.5992 90.647 80.8899 91.482 80.7822 91.5841C80.6743 91.6862 79.5332 93.0273 78.2464 94.5642C76.9596 96.1013 75.6902 97.5927 75.4253 97.8789C74.7078 98.6538 74.6789 98.9756 75.2202 100.158C75.4915 100.749 75.8658 101.62 76.0523 102.092C76.2388 102.564 76.5536 103.316 76.7518 103.762C76.9498 104.209 77.2976 105.033 77.5243 105.595C77.9474 106.641 78.0794 106.948 78.904 108.801C79.1665 109.391 79.3814 109.918 79.3814 109.971C79.3814 110.025 79.5395 110.419 79.7329 110.847C79.9263 111.275 80.3096 112.169 80.585 112.832C80.8601 113.495 81.1973 114.289 81.3341 114.595C81.471 114.901 81.8047 115.694 82.0757 116.358C83.5729 120.023 84.1603 121.176 84.6165 121.347C84.8472 121.433 85.6199 121.517 86.3336 121.534C87.0474 121.551 88.7577 121.646 90.1342 121.746C91.5108 121.846 95.1816 122.093 98.2915 122.295C103.376 122.626 107.393 122.906 114.16 123.404C117.233 123.63 118.241 123.372 119.653 122C120.613 121.068 120.934 120.36 121.035 118.956C121.144 117.442 121.05 117.143 118.963 112.368C118.83 112.062 118.496 111.269 118.221 110.605C117.947 109.942 117.612 109.148 117.477 108.842C116.988 107.731 115.557 104.35 114.904 102.764C114.537 101.87 114.08 100.785 113.889 100.351C113.113 98.5914 112.567 97.2847 112.567 97.1874C112.567 97.1306 112.324 96.5567 112.028 95.9116C111.732 95.2666 111.056 93.695 110.528 92.4192C109.999 91.1434 109.453 89.849 109.314 89.5428C109.175 89.2366 108.9 88.5686 108.702 88.0583C108.504 87.5479 108.133 86.6711 107.876 86.1098C107.62 85.5484 107.1 84.3376 106.722 83.419C106.343 82.5004 105.887 81.4148 105.707 81.0066C105.528 80.5983 105.196 79.805 104.969 79.2436C103.856 76.4898 103.158 75.0586 102.608 74.4049C101.558 73.1552 99.1862 72.4913 97.61 73.0055ZM111.64 86.9129C111.64 87.1156 112.606 89.505 113.304 91.0274C113.591 91.6554 114.173 93.0104 114.697 94.2749C114.973 94.9383 115.311 95.7316 115.45 96.0378C115.588 96.344 115.867 97.0224 116.069 97.5456C116.467 98.5749 116.97 99.7446 117.679 101.284C117.926 101.822 118.129 102.376 118.129 102.514C118.129 102.881 118.592 103.206 118.929 103.077C119.635 102.806 120.718 99.6672 120.718 97.8935C120.718 95.8678 119.819 92.9705 118.587 91.0274C117.425 89.1941 115.155 87.3104 113.58 86.8728C112.56 86.5895 111.64 86.6084 111.64 86.9129ZM70.3898 101.238C69.88 101.483 68.5451 102.068 67.4235 102.538C66.3019 103.007 64.8419 103.645 64.1791 103.954C60.4564 105.689 57.8171 109.563 57.5531 113.678C57.3158 117.376 58.8552 120.954 61.6893 123.293C63.992 125.193 66.1958 125.999 69.092 125.999C70.6321 125.999 72.8281 125.589 73.9123 125.1C75.3988 124.43 76.4881 123.953 77.5274 123.517C78.1902 123.24 78.8994 122.939 79.1033 122.848C79.3072 122.758 79.787 122.559 80.1693 122.407C80.7279 122.184 80.8645 122.033 80.8645 121.638C80.8645 121.368 80.7429 120.925 80.594 120.655C80.2781 120.079 79.9511 119.328 78.6413 116.172C78.112 114.896 77.5655 113.602 77.427 113.296C76.9613 112.267 74.3758 106.128 74.3758 106.052C74.3758 105.973 73.7534 104.556 72.9712 102.853C72.7241 102.315 72.5218 101.765 72.5218 101.63C72.5218 101.31 71.9184 100.767 71.5802 100.781C71.4354 100.787 70.8996 100.993 70.3898 101.238ZM76.8693 127.094C76.7725 127.181 75.9423 127.55 75.0246 127.914C73.5038 128.516 72.8613 128.717 71.3631 129.054C70.7035 129.203 70.7116 129.546 71.4095 130.988C71.7154 131.62 71.9656 132.186 71.9656 132.245C71.9656 132.305 72.0861 132.617 72.2333 132.938C72.6837 133.922 74.7465 138.838 74.7465 138.927C74.7465 138.973 75.1231 139.796 75.5832 140.755C76.5208 142.711 77.2729 143.482 78.5595 143.806C81.2368 144.481 83.9447 141.863 83.2845 139.238C83.0917 138.472 82.5978 137.18 81.8796 135.564C81.7435 135.258 81.2412 134.089 80.7635 132.966C80.2859 131.844 79.7854 130.675 79.6513 130.368C79.5171 130.062 79.1435 129.165 78.8209 128.374C78.261 127.001 78.2075 126.935 77.64 126.935C77.3129 126.935 76.9661 127.007 76.8693 127.094ZM25.7351 167.879C25.1183 168.497 25.1059 169.225 25.701 169.868L26.1558 170.359H64.9203H103.685L104.14 169.903C104.731 169.312 104.731 168.519 104.14 167.881L103.686 167.39H64.9548H26.224L25.7351 167.879ZM25.8193 179.745C25.0269 180.412 25.026 181.275 25.8169 181.941L26.3872 182.421H50.9235H75.4597L76.03 181.941C76.7089 181.369 76.7985 180.48 76.246 179.797L75.8917 179.359L51.1418 179.311L26.392 179.262L25.8193 179.745Z" fill="#47B1AF"/>
<path fill-rule="evenodd" clip-rule="evenodd" d="M0.124657 91.9552C0.124657 134.822 0.145977 152.386 0.171933 130.987C0.197888 109.587 0.197888 74.5142 0.171933 53.047C0.145977 31.5796 0.124657 49.0884 0.124657 91.9552ZM30.6332 23.5891C30.1801 23.6782 29.4512 23.9194 29.0131 24.1256C28.5752 24.3316 28.164 24.5002 28.0993 24.5002C27.8321 24.5002 25.64 26.1923 24.8406 27.0155C22.5313 29.3934 21.2816 33.2015 21.7364 36.474C22.3758 41.0769 25.4116 44.6694 29.974 46.2228C31.0372 46.5848 31.6401 46.6637 33.3111 46.6593C35.5999 46.6531 36.437 46.4653 38.3337 45.5323C41.8017 43.8265 44.1204 40.8607 44.8032 37.2579C45.1579 35.3869 45.1559 34.4904 44.793 32.704C43.9098 28.3547 40.5373 24.7942 36.2475 23.6815C35.0163 23.3621 32.0393 23.3131 30.6332 23.5891ZM31.3223 26.6445C29.0296 27.2008 27.2009 28.559 25.9837 30.6096C23.1094 35.4524 25.4055 41.4056 30.8564 43.2429C33.1077 44.0017 36.0643 43.553 38.1142 42.1412C41.2135 40.0069 42.5579 36.5074 41.651 32.9363C41.2335 31.2929 40.6673 30.2977 39.429 29.0306C37.2338 26.7844 34.302 25.9215 31.3223 26.6445ZM54.4428 28.6821C53.3137 29.2399 53.1578 30.4253 54.1145 31.1786C54.5861 31.5499 54.7915 31.5519 93.1932 31.5519C131.415 31.5519 131.802 31.5482 132.265 31.1838C132.523 30.9813 132.787 30.6016 132.852 30.3403C132.999 29.7556 132.522 28.8816 131.901 28.5986C131.588 28.4559 120.331 28.3985 93.2308 28.4015C59.7519 28.4052 54.9326 28.4401 54.4428 28.6821ZM53.9682 41.0018C53.2922 41.6785 53.2841 42.1516 53.9361 42.8742L54.4459 43.4392L79.1476 43.4366C98.1616 43.4346 103.932 43.3823 104.209 43.2093C104.585 42.9744 104.966 42.2935 104.966 41.8567C104.966 41.7162 104.75 41.3443 104.486 41.0303L104.006 40.4593H79.2579H54.5101L53.9682 41.0018ZM96.5279 70.1134C94.2614 70.8978 93.8777 71.2541 88.9292 77.1677C88.6233 77.5331 88.0393 78.2213 87.6314 78.6968C87.2235 79.1722 86.5144 80.0076 86.0556 80.553C85.5967 81.0984 84.8876 81.9339 84.4797 82.4093C84.0718 82.8847 83.1959 83.9241 82.5331 84.7189C81.8703 85.5135 81.2437 86.256 81.1404 86.3688C81.0373 86.4815 80.3269 87.3253 79.5618 88.2438C78.214 89.8618 77.7955 90.353 76.4088 91.9452C76.0484 92.3591 75.1349 93.4491 74.3789 94.3677C72.3792 96.7972 71.6234 97.4454 70.075 98.0579C68.7689 98.5746 67.9472 98.9249 66.2577 99.6854C65.8204 99.8823 64.9027 100.271 64.2184 100.55C60.2013 102.185 57.5116 104.662 55.8117 108.293C54.8466 110.355 54.4754 112.084 54.4793 114.502C54.4849 118.147 55.6721 121.294 58.1403 124.208C59.741 126.098 62.7922 127.97 65.3384 128.625C66.1793 128.842 66.9758 129.107 67.1083 129.214C67.3586 129.416 67.6853 130.085 68.5344 132.131C69.036 133.341 69.121 133.537 70.0051 135.524C70.2676 136.113 70.4825 136.644 70.4825 136.702C70.4825 136.76 70.6004 137.071 70.7444 137.392C70.9831 137.925 71.2243 138.495 72.4061 141.317C73.3198 143.499 73.9494 144.475 74.9853 145.316C78.5957 148.246 83.7574 147.137 85.7665 143C86.39 141.716 86.6028 139.71 86.2599 138.346C86.0854 137.652 84.351 133.351 83.6419 131.853C82.7654 130.002 81.0946 125.736 81.1695 125.54C81.3039 125.19 83.5768 124.315 84.0693 124.425C84.2951 124.475 86.6071 124.644 89.2073 124.799C91.8074 124.955 94.1851 125.121 94.491 125.169C94.7969 125.216 96.674 125.342 98.6623 125.45C100.651 125.558 103.863 125.765 105.8 125.911C112.655 126.427 116.276 126.616 117.3 126.51C119.557 126.277 122.163 124.457 123.274 122.337C124.66 119.695 124.57 117.414 122.939 113.831C122.741 113.395 122.578 112.994 122.578 112.94C122.578 112.887 122.363 112.36 122.101 111.771C121.296 109.962 121.152 109.631 120.558 108.22C120.241 107.469 119.983 106.77 119.983 106.667C119.983 106.564 120.443 105.982 121.006 105.373C122.851 103.379 123.506 101.632 123.638 98.3574C123.716 96.411 123.668 95.7726 123.338 94.389C122.173 89.5133 118.575 85.224 114.526 83.887C114.125 83.7547 112.968 83.5951 111.955 83.5326L110.112 83.419L109.555 82.12C109.248 81.4055 108.836 80.4556 108.638 80.0091C108.441 79.5626 108.115 78.7693 107.915 78.2462C107.499 77.158 107.475 77.1042 106.47 74.9647C105.29 72.4529 103.814 71.0095 101.575 70.178C100.214 69.6725 97.8877 69.6426 96.5279 70.1134ZM97.61 73.0055C96.7016 73.3019 95.7173 73.8873 95.3252 74.3644C95.1723 74.5506 94.6721 75.1609 94.2136 75.7206C93.7553 76.2804 93.2965 76.831 93.194 76.9444C92.5282 77.6806 91.7199 78.6244 90.5076 80.0811C89.7443 80.9984 88.5346 82.4251 87.8194 83.2518C87.1041 84.0783 85.9768 85.4057 85.314 86.2014C84.6512 86.9974 84.0255 87.7406 83.9235 87.8534C83.8216 87.966 83.1171 88.8098 82.3583 89.7284C81.5993 90.647 80.8899 91.482 80.7822 91.5841C80.6743 91.6862 79.5332 93.0273 78.2464 94.5642C76.9596 96.1013 75.6902 97.5927 75.4253 97.8789C74.7078 98.6538 74.6789 98.9756 75.2202 100.158C75.4915 100.749 75.8658 101.62 76.0523 102.092C76.2388 102.564 76.5536 103.316 76.7518 103.762C76.9498 104.209 77.2976 105.033 77.5243 105.595C77.9474 106.641 78.0794 106.948 78.904 108.801C79.1665 109.391 79.3814 109.918 79.3814 109.971C79.3814 110.025 79.5395 110.419 79.7329 110.847C79.9263 111.275 80.3097 112.169 80.585 112.832C80.8601 113.495 81.1973 114.289 81.3341 114.595C81.471 114.901 81.8047 115.694 82.0757 116.358C83.573 120.023 84.1603 121.176 84.6165 121.347C84.8472 121.433 85.6199 121.517 86.3337 121.534C87.0474 121.551 88.7577 121.646 90.1342 121.746C91.5108 121.846 95.1816 122.093 98.2915 122.295C103.376 122.626 107.393 122.906 114.16 123.404C117.233 123.63 118.241 123.372 119.653 122C120.613 121.068 120.934 120.36 121.035 118.956C121.144 117.442 121.05 117.143 118.963 112.368C118.83 112.062 118.496 111.269 118.221 110.605C117.947 109.942 117.612 109.148 117.477 108.842C116.988 107.731 115.557 104.35 114.904 102.764C114.537 101.87 114.08 100.785 113.889 100.351C113.113 98.5914 112.567 97.2847 112.567 97.1874C112.567 97.1306 112.324 96.5567 112.028 95.9116C111.732 95.2666 111.056 93.695 110.528 92.4192C109.999 91.1434 109.453 89.849 109.314 89.5428C109.175 89.2366 108.9 88.5686 108.702 88.0583C108.504 87.5479 108.133 86.6711 107.876 86.1098C107.62 85.5484 107.1 84.3376 106.722 83.419C106.343 82.5004 105.887 81.4148 105.707 81.0066C105.528 80.5983 105.196 79.805 104.969 79.2436C103.856 76.4898 103.158 75.0586 102.608 74.4049C101.558 73.1552 99.1862 72.4913 97.61 73.0055ZM111.64 86.9129C111.64 87.1156 112.606 89.505 113.304 91.0274C113.591 91.6554 114.173 93.0104 114.697 94.2749C114.973 94.9383 115.311 95.7316 115.45 96.0378C115.588 96.344 115.867 97.0224 116.069 97.5456C116.467 98.5749 116.97 99.7446 117.679 101.284C117.926 101.822 118.129 102.376 118.129 102.514C118.129 102.881 118.592 103.206 118.929 103.077C119.635 102.806 120.718 99.6672 120.718 97.8935C120.718 95.8678 119.819 92.9705 118.587 91.0274C117.425 89.1941 115.155 87.3104 113.58 86.8728C112.56 86.5895 111.64 86.6084 111.64 86.9129ZM70.3898 101.238C69.88 101.483 68.5451 102.068 67.4235 102.538C66.3019 103.007 64.8419 103.645 64.1791 103.954C60.4564 105.689 57.8171 109.563 57.5531 113.678C57.3158 117.376 58.8552 120.954 61.6893 123.293C63.992 125.193 66.1958 125.999 69.092 125.999C70.6321 125.999 72.8281 125.589 73.9123 125.1C75.3988 124.43 76.4881 123.953 77.5275 123.517C78.1902 123.24 78.8994 122.939 79.1033 122.848C79.3072 122.758 79.787 122.559 80.1693 122.407C80.7279 122.184 80.8645 122.033 80.8645 121.638C80.8645 121.368 80.7429 120.925 80.594 120.655C80.2781 120.079 79.9511 119.328 78.6413 116.172C78.112 114.896 77.5655 113.602 77.427 113.296C76.9613 112.267 74.3758 106.128 74.3758 106.052C74.3758 105.973 73.7534 104.556 72.9712 102.853C72.7241 102.315 72.5218 101.765 72.5218 101.63C72.5218 101.31 71.9184 100.767 71.5802 100.781C71.4354 100.787 70.8996 100.993 70.3898 101.238ZM76.8693 127.094C76.7725 127.181 75.9423 127.55 75.0246 127.914C73.5038 128.516 72.8613 128.717 71.3631 129.054C70.7035 129.203 70.7116 129.546 71.4095 130.988C71.7154 131.62 71.9656 132.186 71.9656 132.245C71.9656 132.305 72.0861 132.617 72.2333 132.938C72.6837 133.922 74.7465 138.838 74.7465 138.927C74.7465 138.973 75.1231 139.796 75.5832 140.755C76.5208 142.711 77.2729 143.482 78.5595 143.806C81.2368 144.481 83.9447 141.863 83.2845 139.238C83.0917 138.472 82.5978 137.18 81.8796 135.564C81.7435 135.258 81.2413 134.089 80.7635 132.966C80.2859 131.844 79.7854 130.675 79.6513 130.368C79.5171 130.062 79.1435 129.165 78.8209 128.374C78.2611 127.001 78.2075 126.935 77.64 126.935C77.3129 126.935 76.9661 127.007 76.8693 127.094ZM25.7351 167.879C25.1183 168.497 25.1059 169.225 25.701 169.868L26.1558 170.359H64.9203H103.685L104.14 169.903C104.731 169.312 104.731 168.519 104.14 167.881L103.686 167.39H64.9548H26.224L25.7351 167.879ZM25.8193 179.745C25.0269 180.412 25.026 181.275 25.8169 181.941L26.3872 182.421H50.9235H75.4598L76.03 181.941C76.7089 181.369 76.7985 180.48 76.246 179.797L75.8917 179.359L51.1418 179.311L26.392 179.262L25.8193 179.745Z" fill="#FFD14B"/>
</svg>
