<svg width="184" height="194" viewBox="0 0 184 194" fill="none" xmlns="http://www.w3.org/2000/svg">
<mask id="path-1-inside-1_2268_26380" fill="white">
<path fill-rule="evenodd" clip-rule="evenodd" d="M28.8922 0.2554C27.8276 0.663133 27.3938 1.67259 27.2546 4.06568L27.1248 6.29981L18.688 6.42322L10.2511 6.54663L8.24914 7.36777C4.59482 8.86715 1.5168 12.1848 0.478681 15.7443C0.0166011 17.3288 -0.00286912 19.5015 0.000246027 69.4781C0.00362076 126.178 -0.0898341 122.575 1.4545 125.601C2.3366 127.329 5.36426 130.272 7.136 131.124C9.5858 132.301 10.1808 132.381 17.6496 132.527C23.8124 132.648 24.7763 132.718 24.6989 133.038C23.7013 137.161 23.5616 140.123 24.2252 143.077C25.0756 146.864 26.7219 149.765 29.6289 152.598C31.5507 154.471 31.5958 154.543 31.0567 154.852C30.7503 155.028 29.6234 155.65 28.5526 156.235C23.3682 159.064 19.3461 163.256 16.591 168.702C14.1285 173.569 13.3699 177.659 13.5423 185.134C13.6308 188.969 13.7027 189.544 14.2076 190.454C14.9522 191.796 16.2216 192.98 17.5141 193.538C18.5172 193.971 21.4309 193.989 91.8767 193.995L165.195 194L166.299 193.492C167.593 192.897 169.134 191.357 169.711 190.086C170.253 188.888 170.443 182.989 170.065 179.068C169.087 168.917 163.667 160.795 154.591 155.878C153.463 155.267 152.416 154.722 152.265 154.668C152.114 154.614 152.659 153.994 153.476 153.292C155.218 151.794 157.599 148.504 158.47 146.39C159.96 142.775 160.303 138.623 159.424 134.828C159.165 133.709 159.012 132.737 159.085 132.669C159.157 132.6 162.146 132.543 165.727 132.541C170.339 132.539 172.617 132.442 173.537 132.208C177.068 131.308 180.641 128.631 182.182 125.728C183.907 122.48 183.791 126.561 183.791 69.4836C183.791 23.2291 183.747 17.5653 183.383 16.2276C182.184 11.8306 178.919 8.48706 174.395 7.02396C172.585 6.43877 172.329 6.42322 164.56 6.42322H156.583L156.493 4.05926L156.403 1.6953L155.434 0.85071C154.599 0.123356 154.283 0.00612043 153.158 0.00612043C152.034 0.00612043 151.718 0.123356 150.883 0.85071L149.913 1.6953L149.823 4.05926L149.733 6.42322H137.842H125.951L125.861 4.05926L125.771 1.6953L124.801 0.85071C124 0.152727 123.63 0.00612043 122.672 0.00612043C120.154 0.00612043 119.339 0.949681 119.153 4.07851L119.022 6.29981L107.145 6.36399L95.2686 6.42816V4.43886C95.2686 2.25556 94.9366 1.36334 93.811 0.521463C92.5171 -0.446039 89.7649 0.000197011 88.9812 1.30435C88.7984 1.60842 88.5905 2.85679 88.5191 4.07851L88.3893 6.29981L76.5128 6.36399L64.6363 6.42816V4.43886C64.6363 2.25556 64.3043 1.36334 63.1787 0.521463C61.8849 -0.446039 59.1327 0.000197011 58.3489 1.30435C58.1662 1.60842 57.9583 2.85679 57.8869 4.07851L57.7571 6.29981L45.8806 6.36399L34.0041 6.42816V4.5667C34.0041 1.44108 32.9377 -0.0079479 30.6592 0.0216695C30.0004 0.0303079 29.2052 0.13545 28.8922 0.2554ZM11.6774 13.0708C9.74883 13.6286 8.14219 14.9891 7.28631 16.7893C6.82786 17.7531 6.75725 18.4138 6.75232 21.7872L6.74661 25.6745H91.8938H177.041L177.042 22.0341C177.044 17.6317 176.713 16.483 174.955 14.7943C173.03 12.9445 172.439 12.8403 163.885 12.8403H156.533V14.6993C156.533 15.7589 156.372 16.9241 156.159 17.4088C155.425 19.08 153.101 19.7491 151.419 18.7737C150.169 18.0493 149.784 17.119 149.784 14.8272V12.8403H137.842H125.901V14.6993C125.901 15.7589 125.74 16.9241 125.527 17.4088C124.793 19.08 122.469 19.7491 120.787 18.7737C119.537 18.0493 119.151 17.119 119.151 14.8272V12.8403H107.21H95.2686V14.6993C95.2686 15.7589 95.1079 16.9241 94.8948 17.4088C94.1357 19.1362 91.7376 19.7733 90.0538 18.6947C88.8078 17.8963 88.5274 17.1965 88.523 14.8765L88.5191 12.8403H76.5777H64.6363V14.7158C64.6363 15.9566 64.4897 16.8853 64.2028 17.4599C63.3384 19.192 61.1001 19.77 59.4216 18.6947C58.1755 17.8963 57.8952 17.1965 57.8908 14.8765L57.8869 12.8403H45.9455H34.0041V14.7571C34.0041 17.0408 33.4888 18.1808 32.1649 18.825C30.579 19.597 28.9256 19.2362 27.7967 17.8716C27.3395 17.319 27.2546 16.8735 27.2546 15.0283V12.8403L19.7913 12.8615C15.6865 12.8731 12.0351 12.9674 11.6774 13.0708ZM6.75232 76.7028C6.75803 120.785 6.7614 121.074 7.28631 122.178C7.9327 123.538 9.13073 124.76 10.5107 125.47C11.5068 125.982 11.9035 126.006 20.2212 126.078L28.8932 126.152L29.8262 125.305C32.2344 123.12 35.57 121.274 38.6701 120.41C39.6018 120.151 41.5962 119.872 43.1019 119.791C48.9077 119.48 53.9106 121.27 58.5037 125.302C59.7996 126.44 60.1801 127.033 62.0684 130.856C63.821 134.403 64.2298 135.467 64.4588 137.072C64.978 140.714 63.8656 145.621 61.7608 148.973C61.272 149.751 59.9509 151.319 58.8248 152.456C57.6987 153.594 56.8225 154.558 56.8778 154.599C56.9331 154.64 57.7412 155.073 58.6734 155.561C59.6059 156.049 60.9771 156.846 61.7203 157.332L63.0718 158.216L63.8542 156.576C64.2843 155.674 64.6363 154.888 64.6363 154.829C64.6363 154.484 68.2107 149.701 69.422 148.425C71.1641 146.59 74.9856 143.792 77.5359 142.485L79.4024 141.528L78.1516 140.504C76.2937 138.982 74.6084 136.713 72.9738 133.531L71.5156 130.693L71.526 126.867C71.5348 123.658 71.6311 122.726 72.1231 121.081C74.1043 114.46 79.3811 109.399 86.2767 107.507C88.186 106.983 89.1131 106.876 91.7282 106.879C96.3854 106.885 99.4873 107.729 103.056 109.964C106.18 111.919 108.38 114.265 110.048 117.421C111.665 120.478 112.142 122.584 112.142 126.664C112.142 130.069 112.138 130.094 111.112 132.554C109.81 135.678 108.294 137.909 106.056 139.996L104.293 141.638L105.687 142.302C111.385 145.014 116.74 150.239 119.51 155.79C120.027 156.825 120.449 157.793 120.449 157.942C120.449 158.331 120.465 158.324 122.418 157.079C123.397 156.455 124.785 155.664 125.503 155.321C126.221 154.978 126.852 154.661 126.905 154.616C126.957 154.571 126.252 153.834 125.337 152.977C121.617 149.491 119.539 145.224 119.235 140.442C118.982 136.46 119.353 135.065 121.923 130.353C123.614 127.254 124.453 125.99 125.355 125.188C127.865 122.956 130.915 121.299 134.338 120.307C136.567 119.661 142.531 119.656 144.721 120.298C148.236 121.328 151.741 123.245 153.897 125.317L154.765 126.151L163.502 126.077L172.239 126.003L173.452 125.325C174.12 124.952 175.022 124.236 175.457 123.734C177.151 121.781 177.041 125.053 177.041 76.4738V32.3384H91.8938H6.74661L6.75232 76.7028ZM89.9469 42.1949C88.125 42.6167 86.5976 43.8391 84.8386 46.2833C80.9431 51.6961 78.8146 54.566 78.5623 54.7462C78.2363 54.979 77.2467 55.2522 70.8666 56.8698C65.5395 58.2203 64.8902 58.4866 63.4575 59.9085C61.3024 62.0469 60.6827 65.1557 61.8665 67.8914C62.2795 68.8456 63.6543 70.6125 66.3992 73.7171L70.3391 78.1733L70.0686 82.8371C69.6504 90.0477 69.6652 91.5591 70.1639 92.6439C70.8568 94.1499 72.0174 95.3667 73.5083 96.1493C74.6923 96.7708 75.1694 96.8747 76.8373 96.8747C78.6418 96.8745 79.2596 96.7101 85.2742 94.6297L91.764 92.3847L95.7878 93.7313C106.902 97.4513 106.78 97.4263 109.367 96.5057C111.098 95.8899 112.531 94.5789 113.385 92.8285C114.028 91.5098 114.034 91.4357 113.862 87.1518C113.766 84.7647 113.621 81.7563 113.541 80.4667L113.396 78.122L117.305 73.6967C122.001 68.3813 122.38 67.7359 122.384 65.041C122.386 63.3821 122.277 62.8675 121.701 61.8225C120.889 60.3506 119.172 58.7865 117.724 58.1998C117.152 57.9686 114.816 57.3195 112.532 56.757C110.247 56.1947 107.619 55.5232 106.691 55.2648L105.003 54.7946L103.316 52.4481C96.9077 43.5373 96.49 43.0747 94.2177 42.3772C92.8237 41.949 91.2913 41.8836 89.9469 42.1949ZM90.7983 49.5427C90.3051 50.1935 88.3454 52.8769 86.4434 55.5059C83.83 59.1187 82.7896 60.3631 82.1829 60.6028C81.5017 60.8716 76.491 62.1609 70.4772 63.6144C68.8314 64.0123 68.0111 64.5101 68.0111 65.1106C68.0111 65.3105 68.8163 66.3762 69.8005 67.4787C75.2444 73.5784 76.6452 75.219 76.8856 75.7773C77.0684 76.202 77.0512 78.5329 76.8303 83.2604C76.6195 87.7706 76.5972 90.2096 76.7654 90.3695C76.9334 90.5292 77.5909 90.4009 78.6815 89.9953C79.5947 89.6557 82.8508 88.5303 85.9174 87.4944C90.0728 86.0905 91.6929 85.6478 92.2775 85.7564C92.709 85.8366 94.4054 86.3551 96.0474 86.9082C98.8185 87.8422 105.834 90.2399 106.667 90.5378C106.978 90.6494 107 89.71 106.814 84.1484C106.695 80.5625 106.611 77.2559 106.627 76.8006C106.667 75.7173 107.193 75.0099 111.858 69.7723C114.013 67.3519 115.777 65.2905 115.777 65.1918C115.777 65.0928 115.626 64.8156 115.441 64.5755C115.081 64.1068 113.996 63.7857 106.95 62.0597C104.452 61.4476 102.005 60.7573 101.512 60.5258C100.822 60.2012 99.6511 58.7779 96.3965 54.3081C94.0752 51.1201 92.0678 48.4774 91.9356 48.4355C91.8035 48.3938 91.2916 48.8918 90.7983 49.5427ZM88.3247 113.674C81.6162 115.392 77.3017 121.798 78.4943 128.272C79.0088 131.065 80.191 133.239 82.2841 135.242C85.2238 138.054 88.2343 139.104 92.8045 138.91C95.2353 138.807 95.6019 138.722 97.6236 137.79C102.276 135.646 105.044 131.764 105.326 126.991C105.571 122.83 104.44 119.993 101.388 117.114C99.3556 115.197 97.6893 114.241 95.3893 113.671C93.5098 113.205 90.1488 113.207 88.3247 113.674ZM41.4026 126.414C40.6887 126.542 39.2656 127.039 38.2399 127.518C29.8454 131.445 28.0069 141.961 34.6201 148.225C43.1437 156.299 57.7797 150.512 57.7358 139.084C57.7046 130.933 49.917 124.892 41.4026 126.414ZM137.583 126.271C134.454 126.795 132.382 127.837 130.04 130.063C127.895 132.102 126.844 133.855 126.262 136.369C124.234 145.125 132.128 153.15 141.492 151.853C148.518 150.879 153.665 144.787 153.074 138.144C152.784 134.885 151.51 132.265 149.106 129.979C147.484 128.437 145.975 127.532 143.883 126.848C142.457 126.381 138.88 126.054 137.583 126.271ZM87.0955 146.021C77.425 148.062 70.4435 154.855 68.4231 164.187C68.0838 165.754 68.0111 167.987 68.0111 176.836V187.583H91.9177H115.825L115.706 176.168C115.596 165.586 115.548 164.62 115.052 162.936C113.779 158.623 112.14 155.832 109.063 152.742C105.797 149.462 102.54 147.583 97.9943 146.356C95.2678 145.62 89.7911 145.452 87.0955 146.021ZM40.3507 158.843C31.5618 160.248 24.0702 166.411 21.4649 174.378C20.6529 176.862 20.4431 178.422 20.3118 182.955L20.1775 187.583H40.7196H61.2616V176.486V165.39L60.5477 164.741C57.2597 161.752 52.7645 159.659 47.8875 158.848C45.1304 158.39 43.1961 158.389 40.3507 158.843ZM135.902 158.823C131.063 159.634 126.993 161.518 123.446 164.586L122.526 165.382V176.482V187.583H143.071H163.617L163.475 183.202C163.275 177.019 162.598 174.202 160.376 170.306C158.152 166.406 154.401 162.953 150.216 160.951C146.034 158.951 140.26 158.092 135.902 158.823Z"/>
</mask>
<path fill-rule="evenodd" clip-rule="evenodd" d="M28.8922 0.2554C27.8276 0.663133 27.3938 1.67259 27.2546 4.06568L27.1248 6.29981L18.688 6.42322L10.2511 6.54663L8.24914 7.36777C4.59482 8.86715 1.5168 12.1848 0.478681 15.7443C0.0166011 17.3288 -0.00286912 19.5015 0.000246027 69.4781C0.00362076 126.178 -0.0898341 122.575 1.4545 125.601C2.3366 127.329 5.36426 130.272 7.136 131.124C9.5858 132.301 10.1808 132.381 17.6496 132.527C23.8124 132.648 24.7763 132.718 24.6989 133.038C23.7013 137.161 23.5616 140.123 24.2252 143.077C25.0756 146.864 26.7219 149.765 29.6289 152.598C31.5507 154.471 31.5958 154.543 31.0567 154.852C30.7503 155.028 29.6234 155.65 28.5526 156.235C23.3682 159.064 19.3461 163.256 16.591 168.702C14.1285 173.569 13.3699 177.659 13.5423 185.134C13.6308 188.969 13.7027 189.544 14.2076 190.454C14.9522 191.796 16.2216 192.98 17.5141 193.538C18.5172 193.971 21.4309 193.989 91.8767 193.995L165.195 194L166.299 193.492C167.593 192.897 169.134 191.357 169.711 190.086C170.253 188.888 170.443 182.989 170.065 179.068C169.087 168.917 163.667 160.795 154.591 155.878C153.463 155.267 152.416 154.722 152.265 154.668C152.114 154.614 152.659 153.994 153.476 153.292C155.218 151.794 157.599 148.504 158.47 146.39C159.96 142.775 160.303 138.623 159.424 134.828C159.165 133.709 159.012 132.737 159.085 132.669C159.157 132.6 162.146 132.543 165.727 132.541C170.339 132.539 172.617 132.442 173.537 132.208C177.068 131.308 180.641 128.631 182.182 125.728C183.907 122.48 183.791 126.561 183.791 69.4836C183.791 23.2291 183.747 17.5653 183.383 16.2276C182.184 11.8306 178.919 8.48706 174.395 7.02396C172.585 6.43877 172.329 6.42322 164.56 6.42322H156.583L156.493 4.05926L156.403 1.6953L155.434 0.85071C154.599 0.123356 154.283 0.00612043 153.158 0.00612043C152.034 0.00612043 151.718 0.123356 150.883 0.85071L149.913 1.6953L149.823 4.05926L149.733 6.42322H137.842H125.951L125.861 4.05926L125.771 1.6953L124.801 0.85071C124 0.152727 123.63 0.00612043 122.672 0.00612043C120.154 0.00612043 119.339 0.949681 119.153 4.07851L119.022 6.29981L107.145 6.36399L95.2686 6.42816V4.43886C95.2686 2.25556 94.9366 1.36334 93.811 0.521463C92.5171 -0.446039 89.7649 0.000197011 88.9812 1.30435C88.7984 1.60842 88.5905 2.85679 88.5191 4.07851L88.3893 6.29981L76.5128 6.36399L64.6363 6.42816V4.43886C64.6363 2.25556 64.3043 1.36334 63.1787 0.521463C61.8849 -0.446039 59.1327 0.000197011 58.3489 1.30435C58.1662 1.60842 57.9583 2.85679 57.8869 4.07851L57.7571 6.29981L45.8806 6.36399L34.0041 6.42816V4.5667C34.0041 1.44108 32.9377 -0.0079479 30.6592 0.0216695C30.0004 0.0303079 29.2052 0.13545 28.8922 0.2554ZM11.6774 13.0708C9.74883 13.6286 8.14219 14.9891 7.28631 16.7893C6.82786 17.7531 6.75725 18.4138 6.75232 21.7872L6.74661 25.6745H91.8938H177.041L177.042 22.0341C177.044 17.6317 176.713 16.483 174.955 14.7943C173.03 12.9445 172.439 12.8403 163.885 12.8403H156.533V14.6993C156.533 15.7589 156.372 16.9241 156.159 17.4088C155.425 19.08 153.101 19.7491 151.419 18.7737C150.169 18.0493 149.784 17.119 149.784 14.8272V12.8403H137.842H125.901V14.6993C125.901 15.7589 125.74 16.9241 125.527 17.4088C124.793 19.08 122.469 19.7491 120.787 18.7737C119.537 18.0493 119.151 17.119 119.151 14.8272V12.8403H107.21H95.2686V14.6993C95.2686 15.7589 95.1079 16.9241 94.8948 17.4088C94.1357 19.1362 91.7376 19.7733 90.0538 18.6947C88.8078 17.8963 88.5274 17.1965 88.523 14.8765L88.5191 12.8403H76.5777H64.6363V14.7158C64.6363 15.9566 64.4897 16.8853 64.2028 17.4599C63.3384 19.192 61.1001 19.77 59.4216 18.6947C58.1755 17.8963 57.8952 17.1965 57.8908 14.8765L57.8869 12.8403H45.9455H34.0041V14.7571C34.0041 17.0408 33.4888 18.1808 32.1649 18.825C30.579 19.597 28.9256 19.2362 27.7967 17.8716C27.3395 17.319 27.2546 16.8735 27.2546 15.0283V12.8403L19.7913 12.8615C15.6865 12.8731 12.0351 12.9674 11.6774 13.0708ZM6.75232 76.7028C6.75803 120.785 6.7614 121.074 7.28631 122.178C7.9327 123.538 9.13073 124.76 10.5107 125.47C11.5068 125.982 11.9035 126.006 20.2212 126.078L28.8932 126.152L29.8262 125.305C32.2344 123.12 35.57 121.274 38.6701 120.41C39.6018 120.151 41.5962 119.872 43.1019 119.791C48.9077 119.48 53.9106 121.27 58.5037 125.302C59.7996 126.44 60.1801 127.033 62.0684 130.856C63.821 134.403 64.2298 135.467 64.4588 137.072C64.978 140.714 63.8656 145.621 61.7608 148.973C61.272 149.751 59.9509 151.319 58.8248 152.456C57.6987 153.594 56.8225 154.558 56.8778 154.599C56.9331 154.64 57.7412 155.073 58.6734 155.561C59.6059 156.049 60.9771 156.846 61.7203 157.332L63.0718 158.216L63.8542 156.576C64.2843 155.674 64.6363 154.888 64.6363 154.829C64.6363 154.484 68.2107 149.701 69.422 148.425C71.1641 146.59 74.9856 143.792 77.5359 142.485L79.4024 141.528L78.1516 140.504C76.2937 138.982 74.6084 136.713 72.9738 133.531L71.5156 130.693L71.526 126.867C71.5348 123.658 71.6311 122.726 72.1231 121.081C74.1043 114.46 79.3811 109.399 86.2767 107.507C88.186 106.983 89.1131 106.876 91.7282 106.879C96.3854 106.885 99.4873 107.729 103.056 109.964C106.18 111.919 108.38 114.265 110.048 117.421C111.665 120.478 112.142 122.584 112.142 126.664C112.142 130.069 112.138 130.094 111.112 132.554C109.81 135.678 108.294 137.909 106.056 139.996L104.293 141.638L105.687 142.302C111.385 145.014 116.74 150.239 119.51 155.79C120.027 156.825 120.449 157.793 120.449 157.942C120.449 158.331 120.465 158.324 122.418 157.079C123.397 156.455 124.785 155.664 125.503 155.321C126.221 154.978 126.852 154.661 126.905 154.616C126.957 154.571 126.252 153.834 125.337 152.977C121.617 149.491 119.539 145.224 119.235 140.442C118.982 136.46 119.353 135.065 121.923 130.353C123.614 127.254 124.453 125.99 125.355 125.188C127.865 122.956 130.915 121.299 134.338 120.307C136.567 119.661 142.531 119.656 144.721 120.298C148.236 121.328 151.741 123.245 153.897 125.317L154.765 126.151L163.502 126.077L172.239 126.003L173.452 125.325C174.12 124.952 175.022 124.236 175.457 123.734C177.151 121.781 177.041 125.053 177.041 76.4738V32.3384H91.8938H6.74661L6.75232 76.7028ZM89.9469 42.1949C88.125 42.6167 86.5976 43.8391 84.8386 46.2833C80.9431 51.6961 78.8146 54.566 78.5623 54.7462C78.2363 54.979 77.2467 55.2522 70.8666 56.8698C65.5395 58.2203 64.8902 58.4866 63.4575 59.9085C61.3024 62.0469 60.6827 65.1557 61.8665 67.8914C62.2795 68.8456 63.6543 70.6125 66.3992 73.7171L70.3391 78.1733L70.0686 82.8371C69.6504 90.0477 69.6652 91.5591 70.1639 92.6439C70.8568 94.1499 72.0174 95.3667 73.5083 96.1493C74.6923 96.7708 75.1694 96.8747 76.8373 96.8747C78.6418 96.8745 79.2596 96.7101 85.2742 94.6297L91.764 92.3847L95.7878 93.7313C106.902 97.4513 106.78 97.4263 109.367 96.5057C111.098 95.8899 112.531 94.5789 113.385 92.8285C114.028 91.5098 114.034 91.4357 113.862 87.1518C113.766 84.7647 113.621 81.7563 113.541 80.4667L113.396 78.122L117.305 73.6967C122.001 68.3813 122.38 67.7359 122.384 65.041C122.386 63.3821 122.277 62.8675 121.701 61.8225C120.889 60.3506 119.172 58.7865 117.724 58.1998C117.152 57.9686 114.816 57.3195 112.532 56.757C110.247 56.1947 107.619 55.5232 106.691 55.2648L105.003 54.7946L103.316 52.4481C96.9077 43.5373 96.49 43.0747 94.2177 42.3772C92.8237 41.949 91.2913 41.8836 89.9469 42.1949ZM90.7983 49.5427C90.3051 50.1935 88.3454 52.8769 86.4434 55.5059C83.83 59.1187 82.7896 60.3631 82.1829 60.6028C81.5017 60.8716 76.491 62.1609 70.4772 63.6144C68.8314 64.0123 68.0111 64.5101 68.0111 65.1106C68.0111 65.3105 68.8163 66.3762 69.8005 67.4787C75.2444 73.5784 76.6452 75.219 76.8856 75.7773C77.0684 76.202 77.0512 78.5329 76.8303 83.2604C76.6195 87.7706 76.5972 90.2096 76.7654 90.3695C76.9334 90.5292 77.5909 90.4009 78.6815 89.9953C79.5947 89.6557 82.8508 88.5303 85.9174 87.4944C90.0728 86.0905 91.6929 85.6478 92.2775 85.7564C92.709 85.8366 94.4054 86.3551 96.0474 86.9082C98.8185 87.8422 105.834 90.2399 106.667 90.5378C106.978 90.6494 107 89.71 106.814 84.1484C106.695 80.5625 106.611 77.2559 106.627 76.8006C106.667 75.7173 107.193 75.0099 111.858 69.7723C114.013 67.3519 115.777 65.2905 115.777 65.1918C115.777 65.0928 115.626 64.8156 115.441 64.5755C115.081 64.1068 113.996 63.7857 106.95 62.0597C104.452 61.4476 102.005 60.7573 101.512 60.5258C100.822 60.2012 99.6511 58.7779 96.3965 54.3081C94.0752 51.1201 92.0678 48.4774 91.9356 48.4355C91.8035 48.3938 91.2916 48.8918 90.7983 49.5427ZM88.3247 113.674C81.6162 115.392 77.3017 121.798 78.4943 128.272C79.0088 131.065 80.191 133.239 82.2841 135.242C85.2238 138.054 88.2343 139.104 92.8045 138.91C95.2353 138.807 95.6019 138.722 97.6236 137.79C102.276 135.646 105.044 131.764 105.326 126.991C105.571 122.83 104.44 119.993 101.388 117.114C99.3556 115.197 97.6893 114.241 95.3893 113.671C93.5098 113.205 90.1488 113.207 88.3247 113.674ZM41.4026 126.414C40.6887 126.542 39.2656 127.039 38.2399 127.518C29.8454 131.445 28.0069 141.961 34.6201 148.225C43.1437 156.299 57.7797 150.512 57.7358 139.084C57.7046 130.933 49.917 124.892 41.4026 126.414ZM137.583 126.271C134.454 126.795 132.382 127.837 130.04 130.063C127.895 132.102 126.844 133.855 126.262 136.369C124.234 145.125 132.128 153.15 141.492 151.853C148.518 150.879 153.665 144.787 153.074 138.144C152.784 134.885 151.51 132.265 149.106 129.979C147.484 128.437 145.975 127.532 143.883 126.848C142.457 126.381 138.88 126.054 137.583 126.271ZM87.0955 146.021C77.425 148.062 70.4435 154.855 68.4231 164.187C68.0838 165.754 68.0111 167.987 68.0111 176.836V187.583H91.9177H115.825L115.706 176.168C115.596 165.586 115.548 164.62 115.052 162.936C113.779 158.623 112.14 155.832 109.063 152.742C105.797 149.462 102.54 147.583 97.9943 146.356C95.2678 145.62 89.7911 145.452 87.0955 146.021ZM40.3507 158.843C31.5618 160.248 24.0702 166.411 21.4649 174.378C20.6529 176.862 20.4431 178.422 20.3118 182.955L20.1775 187.583H40.7196H61.2616V176.486V165.39L60.5477 164.741C57.2597 161.752 52.7645 159.659 47.8875 158.848C45.1304 158.39 43.1961 158.389 40.3507 158.843ZM135.902 158.823C131.063 159.634 126.993 161.518 123.446 164.586L122.526 165.382V176.482V187.583H143.071H163.617L163.475 183.202C163.275 177.019 162.598 174.202 160.376 170.306C158.152 166.406 154.401 162.953 150.216 160.951C146.034 158.951 140.26 158.092 135.902 158.823Z" fill="#47B1AF" stroke="white" stroke-width="2" mask="url(#path-1-inside-1_2268_26380)"/>
<path fill-rule="evenodd" clip-rule="evenodd" d="M89.9469 42.1949C88.125 42.6167 86.5976 43.8391 84.8386 46.2833C80.9431 51.6961 78.8147 54.566 78.5623 54.7462C78.2363 54.979 77.2467 55.2522 70.8666 56.8698C65.5395 58.2203 64.8902 58.4866 63.4575 59.9085C61.3024 62.0469 60.6827 65.1557 61.8665 67.8914C62.2795 68.8456 63.6543 70.6125 66.3993 73.7171L70.3391 78.1733L70.0686 82.8371C69.6504 90.0477 69.6652 91.5591 70.1639 92.6439C70.8568 94.1499 72.0174 95.3667 73.5083 96.1493C74.6923 96.7708 75.1694 96.8747 76.8373 96.8747C78.6418 96.8745 79.2596 96.7101 85.2742 94.6297L91.7641 92.3847L95.7878 93.7313C106.902 97.4513 106.78 97.4263 109.367 96.5057C111.098 95.8899 112.531 94.5789 113.385 92.8285C114.028 91.5098 114.034 91.4357 113.862 87.1518C113.766 84.7647 113.621 81.7563 113.541 80.4667L113.396 78.122L117.305 73.6967C122.001 68.3813 122.38 67.7359 122.384 65.041C122.386 63.3821 122.277 62.8675 121.701 61.8225C120.889 60.3506 119.172 58.7865 117.724 58.1998C117.152 57.9686 114.816 57.3195 112.532 56.757C110.247 56.1947 107.619 55.5232 106.691 55.2648L105.003 54.7946L103.316 52.4481C96.9077 43.5373 96.49 43.0747 94.2177 42.3772C92.8237 41.949 91.2913 41.8836 89.9469 42.1949ZM90.7984 49.5427C90.3051 50.1935 88.3454 52.8769 86.4434 55.5059C83.83 59.1187 82.7896 60.3631 82.1829 60.6028C81.5017 60.8716 76.491 62.1609 70.4772 63.6144C68.8314 64.0123 68.0111 64.5101 68.0111 65.1106C68.0111 65.3105 68.8164 66.3762 69.8005 67.4787C75.2444 73.5784 76.6452 75.219 76.8856 75.7773C77.0684 76.202 77.0512 78.5329 76.8303 83.2604C76.6195 87.7706 76.5972 90.2096 76.7654 90.3695C76.9334 90.5292 77.5909 90.4009 78.6815 89.9953C79.5947 89.6557 82.8508 88.5303 85.9174 87.4944C90.0728 86.0905 91.6929 85.6478 92.2775 85.7564C92.709 85.8366 94.4054 86.3551 96.0474 86.9082C98.8186 87.8422 105.834 90.2399 106.667 90.5378C106.978 90.6494 107 89.71 106.814 84.1484C106.695 80.5625 106.611 77.2559 106.627 76.8006C106.667 75.7173 107.193 75.0099 111.858 69.7723C114.013 67.3519 115.777 65.2905 115.777 65.1918C115.777 65.0928 115.626 64.8156 115.441 64.5755C115.081 64.1068 113.996 63.7857 106.95 62.0597C104.452 61.4476 102.005 60.7573 101.512 60.5258C100.822 60.2012 99.6511 58.7779 96.3965 54.3081C94.0752 51.1201 92.0678 48.4774 91.9356 48.4355C91.8035 48.3938 91.2916 48.8918 90.7984 49.5427Z" fill="#FFD14B"/>
</svg>
